<?xml version="1.0" standalone="no"?>
<!DOCTYPE svg PUBLIC "-//W3C//DTD SVG 20010904//EN"
 "http://www.w3.org/TR/2001/REC-SVG-20010904/DTD/svg10.dtd">
<svg version="1.0" xmlns="http://www.w3.org/2000/svg"
 width="700.000000pt" height="700.000000pt" viewBox="0 0 700.000000 700.000000"
 preserveAspectRatio="xMidYMid meet">
<metadata>
Created by potrace 1.14, written by Peter Selinger 2001-2017
</metadata>
<g transform="translate(0.000000,700.000000) scale(0.100000,-0.100000)"
fill="#000000" stroke="none">
<path d="M3338 6996 c-1 -2 -39 -6 -83 -10 -241 -18 -529 -73 -770 -148 -99
-30 -297 -103 -365 -135 -197 -90 -359 -177 -520 -281 -82 -52 -283 -200 -325
-239 -11 -10 -50 -44 -87 -75 -524 -455 -916 -1091 -1081 -1753 -77 -309 -102
-518 -102 -860 0 -195 6 -312 20 -409 3 -17 7 -49 9 -71 10 -83 18 -131 26
-165 5 -19 12 -48 14 -65 16 -86 40 -176 88 -330 95 -307 235 -596 421 -875
39 -58 73 -107 76 -110 4 -3 24 -30 46 -60 22 -30 42 -57 45 -60 3 -3 27 -32
55 -65 144 -174 329 -354 526 -513 78 -63 323 -232 394 -272 151 -86 312 -165
490 -241 147 -63 428 -148 610 -184 84 -16 258 -44 315 -50 36 -4 94 -10 130
-14 72 -9 561 -7 625 3 22 3 81 10 130 16 103 13 131 17 200 30 28 5 61 11 75
14 111 18 349 87 515 148 366 134 782 373 1041 598 22 19 58 50 80 68 61 52
229 219 308 307 328 362 573 793 722 1267 30 96 34 123 34 214 l0 105 -119
122 c-66 67 -141 145 -168 173 -26 28 -139 145 -250 260 -111 115 -230 238
-264 274 -34 36 -148 155 -253 264 -105 110 -207 216 -226 236 -29 30 -301
314 -490 510 -25 26 -119 125 -210 220 -91 95 -190 198 -220 229 -30 31 -127
132 -215 224 -87 92 -163 166 -167 165 -15 -6 -918 -912 -916 -920 6 -17 600
-609 608 -606 5 2 77 70 160 152 82 82 153 146 157 142 14 -14 659 -645 782
-765 66 -64 276 -270 468 -457 191 -188 374 -366 405 -397 l58 -56 -16 -38
c-9 -21 -23 -54 -32 -73 -8 -19 -16 -37 -17 -40 0 -3 -20 -43 -44 -90 -249
-496 -650 -910 -1136 -1175 -282 -154 -616 -265 -930 -311 -22 -3 -51 -7 -65
-10 -136 -23 -570 -22 -694 2 -11 2 -42 6 -70 9 -28 3 -58 8 -66 10 -8 2 -28
7 -45 10 -238 41 -538 147 -775 272 -98 52 -327 197 -377 239 -12 11 -58 48
-103 84 -152 123 -350 337 -477 516 -231 324 -407 756 -459 1124 -3 19 -7 46
-9 60 -13 84 -20 206 -20 355 0 216 6 276 49 530 8 45 56 225 79 295 56 173
191 466 259 564 4 6 38 57 76 114 216 322 561 644 892 831 125 71 326 167 410
196 3 1 12 4 20 7 70 27 252 83 295 92 91 20 229 46 270 51 28 4 59 9 70 11
128 23 490 23 673 -1 148 -19 222 -33 337 -61 107 -27 363 -110 380 -124 5 -4
21 -11 35 -15 45 -13 273 -131 366 -188 377 -234 695 -552 918 -921 142 -234
248 -499 315 -783 l26 -111 205 -212 c113 -117 234 -243 270 -280 36 -37 106
-109 155 -161 l90 -93 3 603 2 604 -50 149 c-27 81 -56 163 -63 181 -8 17 -27
61 -42 97 -359 849 -1110 1561 -2000 1897 -157 59 -430 140 -540 159 -197 34
-267 45 -318 50 -34 3 -73 8 -87 10 -27 6 -556 15 -562 10z"/>
<path d="M3114 4209 c-69 -68 -157 -153 -194 -189 -37 -36 -190 -184 -340
-330 -150 -146 -296 -287 -325 -315 -28 -27 -175 -170 -326 -316 -151 -147
-312 -303 -359 -348 -47 -46 -123 -119 -169 -164 l-83 -82 653 -3 653 -2 81
84 c288 300 539 556 547 556 5 0 19 -10 32 -22 12 -13 62 -59 111 -103 219
-198 293 -265 417 -378 53 -48 109 -99 125 -112 l28 -25 610 0 610 1 -141 137
c-78 75 -199 193 -270 261 -71 68 -218 209 -328 315 -109 105 -224 216 -255
246 -73 70 -490 471 -636 611 -60 59 -137 133 -170 164 -33 31 -79 75 -102 97
l-41 41 -128 -124z"/>
</g>
</svg>
